# xmcd CD database file
#
# Track frame offsets:
#	150
#	20280
#	44657
#
# Disc length: 862 seconds
#
# Revision: 0
# Processed by: cddbd v1.5.1PL0 Copyright (c) Steve Scherf et al.
# Submitted via: CDex 1.51
#
DISCID=1e035c03
DTITLE=井上武英 - 君の中の永遠
DYEAR=1996
DGENRE=Anime
TTITLE0=君の中の永遠
TTITLE1=ガラスのTrue Love
TTITLE2=君の中の永遠(オリジナルカラオケ)
EXTD=YEAR: 1996
EXTT0=
EXTT1=
EXTT2=
PLAYORDER=
